<svg width="275" height="275" xmlns="http://www.w3.org/2000/svg" xmlns:xlink="http://www.w3.org/1999/xlink" xml:space="preserve" overflow="hidden"><g transform="translate(-432 -223)"><path d="M667.469 390.292C667.469 428.261 636.688 459.042 598.719 459.042 560.749 459.042 529.969 428.261 529.969 390.292 529.969 352.322 560.749 321.542 598.719 321.542 636.688 321.542 667.469 352.322 667.469 390.292Z" fill="#207390"/><path d="M508.574 271.026C507.386 271.026 506.422 271.99 506.422 273.178L506.422 273.178C506.422 274.366 507.386 275.33 508.574 275.33 509.763 275.33 510.726 274.366 510.726 273.178L510.726 273.178C510.727 271.99 509.763 271.026 508.574 271.026Z" fill="#207390"/><path d="M521.486 271.026C520.298 271.026 519.334 271.99 519.334 273.178L519.334 273.178C519.334 274.366 520.298 275.33 521.486 275.33 522.675 275.33 523.638 274.366 523.638 273.178L523.638 273.178C523.639 271.99 522.675 271.026 521.486 271.026Z" fill="#207390"/><path d="M534.398 271.026C533.21 271.026 532.246 271.99 532.246 273.178L532.246 273.178C532.246 274.366 533.21 275.33 534.398 275.33 535.587 275.33 536.55 274.366 536.55 273.178L536.55 273.178C536.55 271.99 535.587 271.026 534.398 271.026Z" fill="#207390"/><path d="M547.31 271.026C546.122 271.026 545.159 271.99 545.159 273.178L545.159 273.178C545.159 274.366 546.122 275.33 547.31 275.33 548.499 275.33 549.462 274.366 549.462 273.178L549.462 273.178C549.462 271.99 548.499 271.026 547.31 271.026Z" fill="#207390"/><path d="M560.222 271.026C559.033 271.026 558.07 271.99 558.07 273.178L558.07 273.178C558.07 274.366 559.034 275.33 560.222 275.33 561.41 275.33 562.374 274.366 562.374 273.178L562.374 273.178C562.374 271.99 561.41 271.026 560.222 271.026Z" fill="#207390"/><path d="M573.134 271.026C571.945 271.026 570.982 271.99 570.982 273.178L570.982 273.178C570.982 274.366 571.946 275.33 573.134 275.33 574.322 275.33 575.286 274.366 575.286 273.178L575.286 273.178C575.286 271.99 574.322 271.026 573.134 271.026Z" fill="#207390"/><path d="M495.663 283.938C494.474 283.938 493.511 284.901 493.511 286.09 493.511 287.278 494.474 288.241 495.663 288.241 496.851 288.241 497.814 287.278 497.814 286.09 497.814 284.901 496.851 283.938 495.663 283.938Z" fill="#207390"/><path d="M508.574 283.938C507.386 283.938 506.422 284.901 506.422 286.09 506.422 287.278 507.386 288.241 508.574 288.241 509.763 288.241 510.726 287.278 510.726 286.09 510.727 284.901 509.763 283.938 508.574 283.938Z" fill="#207390"/><path d="M521.486 283.938C520.298 283.938 519.334 284.901 519.334 286.09 519.334 287.278 520.298 288.241 521.486 288.241 522.675 288.241 523.638 287.278 523.638 286.09 523.639 284.901 522.675 283.938 521.486 283.938Z" fill="#207390"/><path d="M534.398 283.938C533.21 283.938 532.246 284.901 532.246 286.09 532.246 287.278 533.21 288.241 534.398 288.241 535.587 288.241 536.55 287.278 536.55 286.09 536.55 284.901 535.587 283.938 534.398 283.938Z" fill="#207390"/><path d="M547.31 283.938C546.122 283.938 545.159 284.901 545.159 286.09 545.159 287.278 546.122 288.241 547.31 288.241 548.499 288.241 549.462 287.278 549.462 286.09 549.462 284.901 548.499 283.938 547.31 283.938Z" fill="#207390"/><path d="M560.222 283.938C559.033 283.938 558.07 284.901 558.07 286.09 558.07 287.278 559.034 288.241 560.222 288.241 561.41 288.241 562.374 287.278 562.374 286.09 562.374 284.901 561.41 283.938 560.222 283.938Z" fill="#207390"/><path d="M573.134 283.938C571.945 283.938 570.982 284.901 570.982 286.09 570.982 287.278 571.946 288.241 573.134 288.241 574.322 288.241 575.286 287.278 575.286 286.09 575.286 284.901 574.322 283.938 573.134 283.938Z" fill="#207390"/><path d="M586.046 283.938C584.857 283.938 583.894 284.901 583.894 286.09 583.894 287.278 584.858 288.241 586.046 288.241 587.234 288.241 588.198 287.278 588.198 286.09 588.198 284.901 587.234 283.938 586.046 283.938Z" fill="#207390"/><path d="M482.751 296.85C481.562 296.85 480.599 297.813 480.599 299.001 480.599 300.19 481.562 301.153 482.751 301.153 483.939 301.153 484.903 300.19 484.903 299.001 484.903 297.813 483.939 296.85 482.751 296.85Z" fill="#207390"/><path d="M495.663 296.85C494.474 296.85 493.511 297.813 493.511 299.001 493.511 300.19 494.474 301.153 495.663 301.153 496.851 301.153 497.814 300.19 497.814 299.001 497.814 297.813 496.851 296.85 495.663 296.85Z" fill="#207390"/><path d="M508.574 296.85C507.386 296.85 506.422 297.813 506.422 299.001 506.422 300.19 507.386 301.153 508.574 301.153 509.763 301.153 510.726 300.19 510.726 299.001 510.726 297.813 509.763 296.85 508.574 296.85Z" fill="#207390"/><path d="M521.486 296.85C520.298 296.85 519.334 297.813 519.334 299.001 519.334 300.19 520.298 301.153 521.486 301.153 522.675 301.153 523.638 300.19 523.638 299.001 523.638 297.813 522.675 296.85 521.486 296.85Z" fill="#207390"/><path d="M536.55 299.001C536.55 300.19 535.586 301.153 534.398 301.153 533.21 301.153 532.246 300.19 532.246 299.001 532.246 297.813 533.21 296.85 534.398 296.85 535.586 296.85 536.55 297.813 536.55 299.001Z" fill="#207390"/><path d="M549.462 299.001C549.462 300.19 548.499 301.153 547.31 301.153 546.122 301.153 545.159 300.19 545.159 299.001 545.159 297.813 546.122 296.85 547.31 296.85 548.499 296.85 549.462 297.813 549.462 299.001Z" fill="#207390"/><path d="M560.222 296.85C559.033 296.85 558.07 297.813 558.07 299.001 558.07 300.19 559.034 301.153 560.222 301.153 561.41 301.153 562.374 300.19 562.374 299.001 562.374 297.813 561.41 296.85 560.222 296.85Z" fill="#207390"/><path d="M573.134 296.85C571.945 296.85 570.982 297.813 570.982 299.001 570.982 300.19 571.946 301.153 573.134 301.153 574.322 301.153 575.286 300.19 575.286 299.001 575.286 297.813 574.322 296.85 573.134 296.85Z" fill="#207390"/><path d="M586.046 296.85C584.857 296.85 583.894 297.813 583.894 299.001 583.894 300.19 584.858 301.153 586.046 301.153 587.234 301.153 588.198 300.19 588.198 299.001 588.198 297.813 587.234 296.85 586.046 296.85Z" fill="#207390"/><path d="M598.958 301.154C600.146 301.154 601.11 300.19 601.11 299.002 601.11 297.814 600.146 296.85 598.958 296.85 597.769 296.85 596.806 297.814 596.806 299.002 596.806 300.19 597.769 301.154 598.958 301.154Z" fill="#207390"/><path d="M482.751 309.761C481.562 309.761 480.599 310.725 480.599 311.913 480.599 313.101 481.562 314.065 482.751 314.065 483.939 314.065 484.903 313.101 484.903 311.913 484.903 310.725 483.939 309.761 482.751 309.761Z" fill="#207390"/><path d="M495.663 309.761C494.474 309.761 493.511 310.725 493.511 311.913 493.511 313.101 494.474 314.065 495.663 314.065 496.851 314.065 497.814 313.101 497.814 311.913 497.814 310.725 496.851 309.761 495.663 309.761Z" fill="#207390"/><path d="M508.574 309.761C507.386 309.761 506.422 310.725 506.422 311.913 506.422 313.101 507.386 314.065 508.574 314.065 509.763 314.065 510.726 313.101 510.726 311.913 510.726 310.725 509.763 309.761 508.574 309.761Z" fill="#207390"/><path d="M521.486 309.761C520.298 309.761 519.334 310.725 519.334 311.913 519.334 313.101 520.298 314.065 521.486 314.065 522.675 314.065 523.638 313.101 523.638 311.913 523.638 310.725 522.675 309.761 521.486 309.761Z" fill="#207390"/><path d="M534.398 309.761C533.21 309.761 532.246 310.725 532.246 311.913 532.246 313.101 533.21 314.065 534.398 314.065 535.587 314.065 536.55 313.101 536.55 311.913 536.55 310.725 535.587 309.761 534.398 309.761Z" fill="#207390"/><path d="M547.31 309.761C546.122 309.761 545.159 310.725 545.159 311.913 545.159 313.101 546.122 314.065 547.31 314.065 548.499 314.065 549.462 313.101 549.462 311.913 549.462 310.725 548.499 309.761 547.31 309.761Z" fill="#207390"/><path d="M560.222 309.761C559.033 309.761 558.07 310.725 558.07 311.913 558.07 313.101 559.034 314.065 560.222 314.065 561.41 314.065 562.374 313.101 562.374 311.913 562.374 310.725 561.41 309.761 560.222 309.761Z" fill="#207390"/><path d="M573.134 309.761C571.945 309.761 570.982 310.725 570.982 311.913 570.982 313.101 571.946 314.065 573.134 314.065 574.322 314.065 575.286 313.101 575.286 311.913 575.286 310.725 574.322 309.761 573.134 309.761Z" fill="#207390"/><path d="M586.046 309.761C584.857 309.761 583.894 310.725 583.894 311.913 583.894 313.101 584.858 314.065 586.046 314.065 587.234 314.065 588.198 313.101 588.198 311.913 588.198 310.725 587.234 309.761 586.046 309.761Z" fill="#207390"/><path d="M598.958 314.066C600.146 314.066 601.11 313.102 601.11 311.914 601.11 310.726 600.146 309.762 598.958 309.762 597.769 309.762 596.806 310.726 596.806 311.914 596.806 313.102 597.769 314.066 598.958 314.066Z" fill="#207390"/><path d="M482.751 322.673C481.562 322.673 480.599 323.637 480.599 324.825 480.599 326.013 481.562 326.977 482.751 326.977 483.939 326.977 484.903 326.013 484.903 324.825 484.903 323.637 483.939 322.673 482.751 322.673Z" fill="#207390"/><path d="M495.663 322.673C494.474 322.673 493.511 323.637 493.511 324.825 493.511 326.013 494.474 326.977 495.663 326.977 496.851 326.977 497.814 326.013 497.814 324.825 497.814 323.637 496.851 322.673 495.663 322.673Z" fill="#207390"/><path d="M508.574 322.673C507.386 322.673 506.422 323.637 506.422 324.825 506.422 326.013 507.386 326.977 508.574 326.977 509.763 326.977 510.726 326.013 510.726 324.825 510.726 323.637 509.763 322.673 508.574 322.673Z" fill="#207390"/><path d="M521.486 322.673C520.298 322.673 519.334 323.637 519.334 324.825 519.334 326.013 520.298 326.977 521.486 326.977 522.675 326.977 523.638 326.013 523.638 324.825 523.638 323.637 522.675 322.673 521.486 322.673Z" fill="#207390"/><path d="M536.55 324.825C536.55 326.014 535.586 326.977 534.398 326.977 533.21 326.977 532.246 326.013 532.246 324.825 532.246 323.637 533.21 322.673 534.398 322.673 535.586 322.673 536.55 323.637 536.55 324.825Z" fill="#207390"/><path d="M549.462 324.825C549.462 326.014 548.499 326.977 547.31 326.977 546.122 326.977 545.159 326.013 545.159 324.825 545.159 323.637 546.122 322.673 547.31 322.673 548.499 322.673 549.462 323.637 549.462 324.825Z" fill="#207390"/><path d="M560.222 322.673C559.033 322.673 558.07 323.637 558.07 324.825 558.07 326.013 559.034 326.977 560.222 326.977 561.41 326.977 562.374 326.013 562.374 324.825 562.374 323.637 561.41 322.673 560.222 322.673Z" fill="#207390"/><path d="M573.134 322.673C571.945 322.673 570.982 323.637 570.982 324.825 570.982 326.013 571.946 326.977 573.134 326.977 574.322 326.977 575.286 326.013 575.286 324.825 575.286 323.637 574.322 322.673 573.134 322.673Z" fill="#207390"/><path d="M586.046 322.673C584.857 322.673 583.894 323.637 583.894 324.825 583.894 326.013 584.858 326.977 586.046 326.977 587.234 326.977 588.198 326.013 588.198 324.825 588.198 323.637 587.234 322.673 586.046 322.673Z" fill="#207390"/><path d="M598.958 326.978C600.146 326.978 601.11 326.014 601.11 324.826 601.11 323.637 600.146 322.674 598.958 322.674 597.769 322.674 596.806 323.637 596.806 324.826 596.806 326.014 597.769 326.978 598.958 326.978Z" fill="#207390"/><path d="M482.751 335.585C481.562 335.585 480.599 336.549 480.599 337.737 480.599 338.925 481.562 339.889 482.751 339.889 483.939 339.889 484.903 338.925 484.903 337.737 484.903 336.549 483.939 335.585 482.751 335.585Z" fill="#207390"/><path d="M495.663 335.585C494.474 335.585 493.511 336.549 493.511 337.737 493.511 338.925 494.474 339.889 495.663 339.889 496.851 339.889 497.814 338.925 497.814 337.737 497.814 336.549 496.851 335.585 495.663 335.585Z" fill="#207390"/><path d="M508.574 335.585C507.386 335.585 506.422 336.549 506.422 337.737 506.422 338.925 507.386 339.889 508.574 339.889 509.763 339.889 510.726 338.925 510.726 337.737 510.726 336.549 509.763 335.585 508.574 335.585Z" fill="#207390"/><path d="M521.486 335.585C520.298 335.585 519.334 336.549 519.334 337.737 519.334 338.925 520.298 339.889 521.486 339.889 522.675 339.889 523.638 338.925 523.638 337.737 523.638 336.549 522.675 335.585 521.486 335.585Z" fill="#207390"/><path d="M534.398 335.585C533.21 335.585 532.246 336.549 532.246 337.737 532.246 338.925 533.21 339.889 534.398 339.889 535.587 339.889 536.55 338.925 536.55 337.737 536.55 336.549 535.587 335.585 534.398 335.585Z" fill="#207390"/><path d="M547.31 335.585C546.122 335.585 545.159 336.549 545.159 337.737 545.159 338.925 546.122 339.889 547.31 339.889 548.499 339.889 549.462 338.925 549.462 337.737 549.462 336.549 548.499 335.585 547.31 335.585Z" fill="#207390"/><path d="M560.222 335.585C559.033 335.585 558.07 336.549 558.07 337.737 558.07 338.925 559.034 339.889 560.222 339.889 561.41 339.889 562.374 338.925 562.374 337.737 562.374 336.549 561.41 335.585 560.222 335.585Z" fill="#207390"/><path d="M573.134 335.585C571.945 335.585 570.982 336.549 570.982 337.737 570.982 338.925 571.946 339.889 573.134 339.889 574.322 339.889 575.286 338.925 575.286 337.737 575.286 336.549 574.322 335.585 573.134 335.585Z" fill="#207390"/><path d="M586.046 335.585C584.857 335.585 583.894 336.549 583.894 337.737 583.894 338.925 584.858 339.889 586.046 339.889 587.234 339.889 588.198 338.925 588.198 337.737 588.198 336.549 587.234 335.585 586.046 335.585Z" fill="#207390"/><path d="M598.958 339.889C600.146 339.889 601.11 338.926 601.11 337.737 601.11 336.549 600.146 335.586 598.958 335.586 597.769 335.586 596.806 336.549 596.806 337.737 596.806 338.926 597.769 339.889 598.958 339.889Z" fill="#207390"/><path d="M482.751 348.497C481.562 348.497 480.599 349.46 480.599 350.649L480.599 350.649C480.599 351.837 481.562 352.801 482.751 352.801 483.939 352.801 484.903 351.837 484.903 350.649L484.903 350.649C484.903 349.46 483.939 348.497 482.751 348.497Z" fill="#207390"/><path d="M495.663 348.497C494.474 348.497 493.511 349.46 493.511 350.649L493.511 350.649C493.511 351.837 494.474 352.801 495.663 352.801 496.851 352.801 497.814 351.837 497.814 350.649L497.814 350.649C497.814 349.46 496.851 348.497 495.663 348.497Z" fill="#207390"/><path d="M508.574 348.497C507.386 348.497 506.422 349.46 506.422 350.649L506.422 350.649C506.422 351.837 507.386 352.801 508.574 352.801 509.763 352.801 510.726 351.837 510.726 350.649L510.726 350.649C510.727 349.46 509.763 348.497 508.574 348.497Z" fill="#207390"/><path d="M521.486 348.497C520.298 348.497 519.334 349.46 519.334 350.649L519.334 350.649C519.334 351.837 520.298 352.801 521.486 352.801 522.675 352.801 523.638 351.837 523.638 350.649L523.638 350.649C523.639 349.46 522.675 348.497 521.486 348.497Z" fill="#207390"/><path d="M534.398 348.497C533.21 348.497 532.246 349.46 532.246 350.649L532.246 350.649C532.246 351.837 533.21 352.801 534.398 352.801 535.587 352.801 536.55 351.837 536.55 350.649L536.55 350.649C536.55 349.46 535.587 348.497 534.398 348.497Z" fill="#207390"/><path d="M547.31 348.497C546.122 348.497 545.159 349.46 545.159 350.649L545.159 350.649C545.159 351.837 546.122 352.801 547.31 352.801 548.499 352.801 549.462 351.837 549.462 350.649L549.462 350.649C549.462 349.46 548.499 348.497 547.31 348.497Z" fill="#207390"/><path d="M560.222 348.497C559.033 348.497 558.07 349.46 558.07 350.649L558.07 350.649C558.07 351.837 559.034 352.801 560.222 352.801 561.41 352.801 562.374 351.837 562.374 350.649L562.374 350.649C562.374 349.46 561.41 348.497 560.222 348.497Z" fill="#207390"/><path d="M573.134 348.497C571.945 348.497 570.982 349.46 570.982 350.649L570.982 350.649C570.982 351.837 571.946 352.801 573.134 352.801 574.322 352.801 575.286 351.837 575.286 350.649L575.286 350.649C575.286 349.46 574.322 348.497 573.134 348.497Z" fill="#207390"/><path d="M586.046 348.497C584.857 348.497 583.894 349.46 583.894 350.649L583.894 350.649C583.894 351.837 584.858 352.801 586.046 352.801 587.234 352.801 588.198 351.837 588.198 350.649L588.198 350.649C588.198 349.46 587.234 348.497 586.046 348.497Z" fill="#207390"/><path d="M598.958 352.801C600.146 352.801 601.11 351.838 601.11 350.649L601.11 350.649C601.11 349.461 600.146 348.497 598.958 348.497 597.769 348.497 596.806 349.461 596.806 350.649L596.806 350.649C596.806 351.838 597.769 352.801 598.958 352.801Z" fill="#207390"/><path d="M482.751 361.409C481.562 361.409 480.599 362.372 480.599 363.561 480.599 364.749 481.562 365.712 482.751 365.712 483.939 365.712 484.903 364.749 484.903 363.561 484.903 362.372 483.939 361.409 482.751 361.409Z" fill="#207390"/><path d="M495.663 361.409C494.474 361.409 493.511 362.372 493.511 363.561 493.511 364.749 494.474 365.712 495.663 365.712 496.851 365.712 497.814 364.749 497.814 363.561 497.814 362.372 496.851 361.409 495.663 361.409Z" fill="#207390"/><path d="M508.574 361.409C507.386 361.409 506.422 362.372 506.422 363.561 506.422 364.749 507.386 365.712 508.574 365.712 509.763 365.712 510.726 364.749 510.726 363.561 510.727 362.372 509.763 361.409 508.574 361.409Z" fill="#207390"/><path d="M521.486 361.409C520.298 361.409 519.334 362.372 519.334 363.561 519.334 364.749 520.298 365.712 521.486 365.712 522.675 365.712 523.638 364.749 523.638 363.561 523.639 362.372 522.675 361.409 521.486 361.409Z" fill="#207390"/><path d="M536.55 363.561C536.55 364.75 535.586 365.713 534.398 365.713 533.21 365.713 532.246 364.75 532.246 363.561 532.246 362.373 533.21 361.409 534.398 361.409 535.586 361.409 536.55 362.373 536.55 363.561Z" fill="#207390"/><path d="M549.462 363.561C549.462 364.75 548.499 365.713 547.31 365.713 546.122 365.713 545.159 364.75 545.159 363.561 545.159 362.373 546.122 361.409 547.31 361.409 548.499 361.409 549.462 362.373 549.462 363.561Z" fill="#207390"/><path d="M560.222 361.409C559.033 361.409 558.07 362.372 558.07 363.561 558.07 364.749 559.034 365.712 560.222 365.712 561.41 365.712 562.374 364.749 562.374 363.561 562.374 362.372 561.41 361.409 560.222 361.409Z" fill="#207390"/><path d="M573.134 361.409C571.945 361.409 570.982 362.372 570.982 363.561 570.982 364.749 571.946 365.712 573.134 365.712 574.322 365.712 575.286 364.749 575.286 363.561 575.286 362.372 574.322 361.409 573.134 361.409Z" fill="#207390"/><path d="M586.046 361.409C584.857 361.409 583.894 362.372 583.894 363.561 583.894 364.749 584.858 365.712 586.046 365.712 587.234 365.712 588.198 364.749 588.198 363.561 588.198 362.372 587.234 361.409 586.046 361.409Z" fill="#207390"/><path d="M598.958 365.713C600.146 365.713 601.11 364.749 601.11 363.561 601.11 362.372 600.146 361.409 598.958 361.409 597.769 361.409 596.806 362.373 596.806 363.561 596.806 364.749 597.769 365.713 598.958 365.713Z" fill="#207390"/><path d="M495.663 374.321C494.474 374.321 493.511 375.285 493.511 376.473 493.511 377.661 494.474 378.625 495.663 378.625 496.851 378.625 497.814 377.661 497.814 376.473 497.814 375.285 496.851 374.321 495.663 374.321Z" fill="#207390"/><path d="M508.574 374.321C507.386 374.321 506.422 375.285 506.422 376.473 506.422 377.661 507.386 378.625 508.574 378.625 509.763 378.625 510.726 377.661 510.726 376.473 510.726 375.285 509.763 374.321 508.574 374.321Z" fill="#207390"/><path d="M521.486 374.321C520.298 374.321 519.334 375.285 519.334 376.473 519.334 377.661 520.298 378.625 521.486 378.625 522.675 378.625 523.638 377.661 523.638 376.473 523.638 375.285 522.675 374.321 521.486 374.321Z" fill="#207390"/><path d="M534.398 374.321C533.21 374.321 532.246 375.285 532.246 376.473 532.246 377.661 533.21 378.625 534.398 378.625 535.587 378.625 536.55 377.661 536.55 376.473 536.55 375.285 535.587 374.321 534.398 374.321Z" fill="#207390"/><path d="M547.31 374.321C546.122 374.321 545.159 375.285 545.159 376.473 545.159 377.661 546.122 378.625 547.31 378.625 548.499 378.625 549.462 377.661 549.462 376.473 549.462 375.285 548.499 374.321 547.31 374.321Z" fill="#207390"/><path d="M560.222 374.321C559.033 374.321 558.07 375.285 558.07 376.473 558.07 377.661 559.034 378.625 560.222 378.625 561.41 378.625 562.374 377.661 562.374 376.473 562.374 375.285 561.41 374.321 560.222 374.321Z" fill="#207390"/><path d="M573.134 374.321C571.945 374.321 570.982 375.285 570.982 376.473 570.982 377.661 571.946 378.625 573.134 378.625 574.322 378.625 575.286 377.661 575.286 376.473 575.286 375.285 574.322 374.321 573.134 374.321Z" fill="#207390"/><path d="M586.046 374.321C584.857 374.321 583.894 375.285 583.894 376.473 583.894 377.661 584.858 378.625 586.046 378.625 587.234 378.625 588.198 377.661 588.198 376.473 588.198 375.285 587.234 374.321 586.046 374.321Z" fill="#207390"/><path d="M508.574 387.233C507.386 387.233 506.422 388.197 506.422 389.385 506.422 390.573 507.386 391.537 508.574 391.537 509.763 391.537 510.726 390.573 510.726 389.385 510.726 388.197 509.763 387.233 508.574 387.233Z" fill="#207390"/><path d="M521.486 387.233C520.298 387.233 519.334 388.197 519.334 389.385 519.334 390.573 520.298 391.537 521.486 391.537 522.675 391.537 523.638 390.573 523.638 389.385 523.638 388.197 522.675 387.233 521.486 387.233Z" fill="#207390"/><path d="M536.55 389.385C536.55 390.573 535.586 391.537 534.398 391.537 533.21 391.537 532.246 390.573 532.246 389.385 532.246 388.196 533.21 387.233 534.398 387.233 535.586 387.233 536.55 388.196 536.55 389.385Z" fill="#207390"/><path d="M549.462 389.385C549.462 390.573 548.499 391.537 547.31 391.537 546.122 391.537 545.159 390.573 545.159 389.385 545.159 388.196 546.122 387.233 547.31 387.233 548.499 387.233 549.462 388.196 549.462 389.385Z" fill="#207390"/><path d="M560.222 387.233C559.033 387.233 558.07 388.197 558.07 389.385 558.07 390.573 559.034 391.537 560.222 391.537 561.41 391.537 562.374 390.573 562.374 389.385 562.374 388.197 561.41 387.233 560.222 387.233Z" fill="#207390"/><path d="M573.134 387.233C571.945 387.233 570.982 388.197 570.982 389.385 570.982 390.573 571.946 391.537 573.134 391.537 574.322 391.537 575.286 390.573 575.286 389.385 575.286 388.197 574.322 387.233 573.134 387.233Z" fill="#207390"/></g></svg>