<svg width="355" height="356" xmlns="http://www.w3.org/2000/svg" xmlns:xlink="http://www.w3.org/1999/xlink" xml:space="preserve" overflow="hidden"><g transform="translate(-813 -156)"><path d="M88.7663 71 221.891 71 221.891 204.125 88.7663 204.125Z" fill="#002F74" transform="matrix(-1 1.22465e-16 -1.2281e-16 -1.00282 1168 512)"/><path d="M178.256 159.75 181.954 159.75 181.954 163.448 178.256 163.448Z" fill="#737373" transform="matrix(-1 1.22465e-16 -1.2281e-16 -1.00282 1168 512)"/><path d="M189.35 159.75 193.048 159.75 193.048 163.448 189.35 163.448Z" fill="#737373" transform="matrix(-1 1.22465e-16 -1.2281e-16 -1.00282 1168 512)"/><path d="M200.443 159.75 204.141 159.75 204.141 163.448 200.443 163.448Z" fill="#737373" transform="matrix(-1 1.22465e-16 -1.2281e-16 -1.00282 1168 512)"/><path d="M211.537 159.75 215.235 159.75 215.235 163.448 211.537 163.448Z" fill="#737373" transform="matrix(-1 1.22465e-16 -1.2281e-16 -1.00282 1168 512)"/><path d="M222.631 159.75 226.329 159.75 226.329 163.448 222.631 163.448Z" fill="#737373" transform="matrix(-1 1.22465e-16 -1.2281e-16 -1.00282 1168 512)"/><path d="M233.725 159.75 237.423 159.75 237.423 163.448 233.725 163.448Z" fill="#737373" transform="matrix(-1 1.22465e-16 -1.2281e-16 -1.00282 1168 512)"/><path d="M244.818 159.75 248.516 159.75 248.516 163.448 244.818 163.448Z" fill="#737373" transform="matrix(-1 1.22465e-16 -1.2281e-16 -1.00282 1168 512)"/><path d="M255.912 159.75 259.61 159.75 259.61 163.448 255.912 163.448Z" fill="#737373" transform="matrix(-1 1.22465e-16 -1.2281e-16 -1.00282 1168 512)"/><path d="M267.006 159.75 270.704 159.75 270.704 163.448 267.006 163.448Z" fill="#737373" transform="matrix(-1 1.22465e-16 -1.2281e-16 -1.00282 1168 512)"/><path d="M278.1 159.75 281.798 159.75 281.798 163.448 278.1 163.448Z" fill="#737373" transform="matrix(-1 1.22465e-16 -1.2281e-16 -1.00282 1168 512)"/><path d="M289.193 159.75 292.891 159.75 292.891 163.448 289.193 163.448Z" fill="#737373" transform="matrix(-1 1.22465e-16 -1.2281e-16 -1.00282 1168 512)"/><path d="M300.287 159.75 303.985 159.75 303.985 163.448 300.287 163.448Z" fill="#737373" transform="matrix(-1 1.22465e-16 -1.2281e-16 -1.00282 1168 512)"/><path d="M178.256 170.844 181.954 170.844 181.954 174.542 178.256 174.542Z" fill="#737373" transform="matrix(-1 1.22465e-16 -1.2281e-16 -1.00282 1168 512)"/><path d="M189.35 170.844 193.048 170.844 193.048 174.542 189.35 174.542Z" fill="#737373" transform="matrix(-1 1.22465e-16 -1.2281e-16 -1.00282 1168 512)"/><path d="M200.443 170.844 204.141 170.844 204.141 174.542 200.443 174.542Z" fill="#737373" transform="matrix(-1 1.22465e-16 -1.2281e-16 -1.00282 1168 512)"/><path d="M211.537 170.844 215.235 170.844 215.235 174.542 211.537 174.542Z" fill="#737373" transform="matrix(-1 1.22465e-16 -1.2281e-16 -1.00282 1168 512)"/><path d="M222.631 170.844 226.329 170.844 226.329 174.542 222.631 174.542Z" fill="#737373" transform="matrix(-1 1.22465e-16 -1.2281e-16 -1.00282 1168 512)"/><path d="M233.725 170.844 237.423 170.844 237.423 174.542 233.725 174.542Z" fill="#737373" transform="matrix(-1 1.22465e-16 -1.2281e-16 -1.00282 1168 512)"/><path d="M244.818 170.844 248.516 170.844 248.516 174.542 244.818 174.542Z" fill="#737373" transform="matrix(-1 1.22465e-16 -1.2281e-16 -1.00282 1168 512)"/><path d="M255.912 170.844 259.61 170.844 259.61 174.542 255.912 174.542Z" fill="#737373" transform="matrix(-1 1.22465e-16 -1.2281e-16 -1.00282 1168 512)"/><path d="M267.006 170.844 270.704 170.844 270.704 174.542 267.006 174.542Z" fill="#737373" transform="matrix(-1 1.22465e-16 -1.2281e-16 -1.00282 1168 512)"/><path d="M278.1 170.844 281.798 170.844 281.798 174.542 278.1 174.542Z" fill="#737373" transform="matrix(-1 1.22465e-16 -1.2281e-16 -1.00282 1168 512)"/><path d="M289.193 170.844 292.891 170.844 292.891 174.542 289.193 174.542Z" fill="#737373" transform="matrix(-1 1.22465e-16 -1.2281e-16 -1.00282 1168 512)"/><path d="M300.287 170.844 303.985 170.844 303.985 174.542 300.287 174.542Z" fill="#737373" transform="matrix(-1 1.22465e-16 -1.2281e-16 -1.00282 1168 512)"/><path d="M178.256 181.938 181.954 181.938 181.954 185.635 178.256 185.635Z" fill="#737373" transform="matrix(-1 1.22465e-16 -1.2281e-16 -1.00282 1168 512)"/><path d="M189.35 181.938 193.048 181.938 193.048 185.635 189.35 185.635Z" fill="#737373" transform="matrix(-1 1.22465e-16 -1.2281e-16 -1.00282 1168 512)"/><path d="M200.443 181.938 204.141 181.938 204.141 185.635 200.443 185.635Z" fill="#737373" transform="matrix(-1 1.22465e-16 -1.2281e-16 -1.00282 1168 512)"/><path d="M211.537 181.938 215.235 181.938 215.235 185.635 211.537 185.635Z" fill="#737373" transform="matrix(-1 1.22465e-16 -1.2281e-16 -1.00282 1168 512)"/><path d="M222.631 181.938 226.329 181.938 226.329 185.635 222.631 185.635Z" fill="#737373" transform="matrix(-1 1.22465e-16 -1.2281e-16 -1.00282 1168 512)"/><path d="M233.725 181.938 237.423 181.938 237.423 185.635 233.725 185.635Z" fill="#737373" transform="matrix(-1 1.22465e-16 -1.2281e-16 -1.00282 1168 512)"/><path d="M244.818 181.938 248.516 181.938 248.516 185.635 244.818 185.635Z" fill="#737373" transform="matrix(-1 1.22465e-16 -1.2281e-16 -1.00282 1168 512)"/><path d="M255.912 181.938 259.61 181.938 259.61 185.635 255.912 185.635Z" fill="#737373" transform="matrix(-1 1.22465e-16 -1.2281e-16 -1.00282 1168 512)"/><path d="M267.006 181.938 270.704 181.938 270.704 185.635 267.006 185.635Z" fill="#737373" transform="matrix(-1 1.22465e-16 -1.2281e-16 -1.00282 1168 512)"/><path d="M278.1 181.938 281.798 181.938 281.798 185.635 278.1 185.635Z" fill="#737373" transform="matrix(-1 1.22465e-16 -1.2281e-16 -1.00282 1168 512)"/><path d="M289.193 181.938 292.891 181.938 292.891 185.635 289.193 185.635Z" fill="#737373" transform="matrix(-1 1.22465e-16 -1.2281e-16 -1.00282 1168 512)"/><path d="M300.287 181.938 303.985 181.938 303.985 185.635 300.287 185.635Z" fill="#737373" transform="matrix(-1 1.22465e-16 -1.2281e-16 -1.00282 1168 512)"/><path d="M178.256 193.031 181.954 193.031 181.954 196.729 178.256 196.729Z" fill="#737373" transform="matrix(-1 1.22465e-16 -1.2281e-16 -1.00282 1168 512)"/><path d="M189.35 193.031 193.048 193.031 193.048 196.729 189.35 196.729Z" fill="#737373" transform="matrix(-1 1.22465e-16 -1.2281e-16 -1.00282 1168 512)"/><path d="M200.443 193.031 204.141 193.031 204.141 196.729 200.443 196.729Z" fill="#737373" transform="matrix(-1 1.22465e-16 -1.2281e-16 -1.00282 1168 512)"/><path d="M211.537 193.031 215.235 193.031 215.235 196.729 211.537 196.729Z" fill="#737373" transform="matrix(-1 1.22465e-16 -1.2281e-16 -1.00282 1168 512)"/><path d="M222.631 193.031 226.329 193.031 226.329 196.729 222.631 196.729Z" fill="#737373" transform="matrix(-1 1.22465e-16 -1.2281e-16 -1.00282 1168 512)"/><path d="M233.725 193.031 237.423 193.031 237.423 196.729 233.725 196.729Z" fill="#737373" transform="matrix(-1 1.22465e-16 -1.2281e-16 -1.00282 1168 512)"/><path d="M244.818 193.031 248.516 193.031 248.516 196.729 244.818 196.729Z" fill="#737373" transform="matrix(-1 1.22465e-16 -1.2281e-16 -1.00282 1168 512)"/><path d="M255.912 193.031 259.61 193.031 259.61 196.729 255.912 196.729Z" fill="#737373" transform="matrix(-1 1.22465e-16 -1.2281e-16 -1.00282 1168 512)"/><path d="M267.006 193.031 270.704 193.031 270.704 196.729 267.006 196.729Z" fill="#737373" transform="matrix(-1 1.22465e-16 -1.2281e-16 -1.00282 1168 512)"/><path d="M278.1 193.031 281.798 193.031 281.798 196.729 278.1 196.729Z" fill="#737373" transform="matrix(-1 1.22465e-16 -1.2281e-16 -1.00282 1168 512)"/><path d="M289.193 193.031 292.891 193.031 292.891 196.729 289.193 196.729Z" fill="#737373" transform="matrix(-1 1.22465e-16 -1.2281e-16 -1.00282 1168 512)"/><path d="M300.287 193.031 303.985 193.031 303.985 196.729 300.287 196.729Z" fill="#737373" transform="matrix(-1 1.22465e-16 -1.2281e-16 -1.00282 1168 512)"/><path d="M178.256 204.125 181.954 204.125 181.954 207.823 178.256 207.823Z" fill="#737373" transform="matrix(-1 1.22465e-16 -1.2281e-16 -1.00282 1168 512)"/><path d="M189.35 204.125 193.048 204.125 193.048 207.823 189.35 207.823Z" fill="#737373" transform="matrix(-1 1.22465e-16 -1.2281e-16 -1.00282 1168 512)"/><path d="M200.443 204.125 204.141 204.125 204.141 207.823 200.443 207.823Z" fill="#737373" transform="matrix(-1 1.22465e-16 -1.2281e-16 -1.00282 1168 512)"/><path d="M211.537 204.125 215.235 204.125 215.235 207.823 211.537 207.823Z" fill="#737373" transform="matrix(-1 1.22465e-16 -1.2281e-16 -1.00282 1168 512)"/><path d="M222.631 204.125 226.329 204.125 226.329 207.823 222.631 207.823Z" fill="#737373" transform="matrix(-1 1.22465e-16 -1.2281e-16 -1.00282 1168 512)"/><path d="M233.725 204.125 237.423 204.125 237.423 207.823 233.725 207.823Z" fill="#737373" transform="matrix(-1 1.22465e-16 -1.2281e-16 -1.00282 1168 512)"/><path d="M244.818 204.125 248.516 204.125 248.516 207.823 244.818 207.823Z" fill="#737373" transform="matrix(-1 1.22465e-16 -1.2281e-16 -1.00282 1168 512)"/><path d="M255.912 204.125 259.61 204.125 259.61 207.823 255.912 207.823Z" fill="#737373" transform="matrix(-1 1.22465e-16 -1.2281e-16 -1.00282 1168 512)"/><path d="M267.006 204.125 270.704 204.125 270.704 207.823 267.006 207.823Z" fill="#737373" transform="matrix(-1 1.22465e-16 -1.2281e-16 -1.00282 1168 512)"/><path d="M278.1 204.125 281.798 204.125 281.798 207.823 278.1 207.823Z" fill="#737373" transform="matrix(-1 1.22465e-16 -1.2281e-16 -1.00282 1168 512)"/><path d="M289.193 204.125 292.891 204.125 292.891 207.823 289.193 207.823Z" fill="#737373" transform="matrix(-1 1.22465e-16 -1.2281e-16 -1.00282 1168 512)"/><path d="M300.287 204.125 303.985 204.125 303.985 207.823 300.287 207.823Z" fill="#737373" transform="matrix(-1 1.22465e-16 -1.2281e-16 -1.00282 1168 512)"/><path d="M178.256 215.219 181.954 215.219 181.954 218.917 178.256 218.917Z" fill="#737373" transform="matrix(-1 1.22465e-16 -1.2281e-16 -1.00282 1168 512)"/><path d="M189.35 215.219 193.048 215.219 193.048 218.917 189.35 218.917Z" fill="#737373" transform="matrix(-1 1.22465e-16 -1.2281e-16 -1.00282 1168 512)"/><path d="M200.443 215.219 204.141 215.219 204.141 218.917 200.443 218.917Z" fill="#737373" transform="matrix(-1 1.22465e-16 -1.2281e-16 -1.00282 1168 512)"/><path d="M211.537 215.219 215.235 215.219 215.235 218.917 211.537 218.917Z" fill="#737373" transform="matrix(-1 1.22465e-16 -1.2281e-16 -1.00282 1168 512)"/><path d="M222.631 215.219 226.329 215.219 226.329 218.917 222.631 218.917Z" fill="#737373" transform="matrix(-1 1.22465e-16 -1.2281e-16 -1.00282 1168 512)"/><path d="M233.725 215.219 237.423 215.219 237.423 218.917 233.725 218.917Z" fill="#737373" transform="matrix(-1 1.22465e-16 -1.2281e-16 -1.00282 1168 512)"/><path d="M244.818 215.219 248.516 215.219 248.516 218.917 244.818 218.917Z" fill="#737373" transform="matrix(-1 1.22465e-16 -1.2281e-16 -1.00282 1168 512)"/><path d="M255.912 215.219 259.61 215.219 259.61 218.917 255.912 218.917Z" fill="#737373" transform="matrix(-1 1.22465e-16 -1.2281e-16 -1.00282 1168 512)"/><path d="M267.006 215.219 270.704 215.219 270.704 218.917 267.006 218.917Z" fill="#737373" transform="matrix(-1 1.22465e-16 -1.2281e-16 -1.00282 1168 512)"/><path d="M278.1 215.219 281.798 215.219 281.798 218.917 278.1 218.917Z" fill="#737373" transform="matrix(-1 1.22465e-16 -1.2281e-16 -1.00282 1168 512)"/><path d="M289.193 215.219 292.891 215.219 292.891 218.917 289.193 218.917Z" fill="#737373" transform="matrix(-1 1.22465e-16 -1.2281e-16 -1.00282 1168 512)"/><path d="M300.287 215.219 303.985 215.219 303.985 218.917 300.287 218.917Z" fill="#737373" transform="matrix(-1 1.22465e-16 -1.2281e-16 -1.00282 1168 512)"/><path d="M178.256 226.312 181.954 226.312 181.954 230.01 178.256 230.01Z" fill="#737373" transform="matrix(-1 1.22465e-16 -1.2281e-16 -1.00282 1168 512)"/><path d="M189.35 226.312 193.048 226.312 193.048 230.01 189.35 230.01Z" fill="#737373" transform="matrix(-1 1.22465e-16 -1.2281e-16 -1.00282 1168 512)"/><path d="M200.443 226.312 204.141 226.312 204.141 230.01 200.443 230.01Z" fill="#737373" transform="matrix(-1 1.22465e-16 -1.2281e-16 -1.00282 1168 512)"/><path d="M211.537 226.312 215.235 226.312 215.235 230.01 211.537 230.01Z" fill="#737373" transform="matrix(-1 1.22465e-16 -1.2281e-16 -1.00282 1168 512)"/><path d="M222.631 226.312 226.329 226.312 226.329 230.01 222.631 230.01Z" fill="#737373" transform="matrix(-1 1.22465e-16 -1.2281e-16 -1.00282 1168 512)"/><path d="M233.725 226.312 237.423 226.312 237.423 230.01 233.725 230.01Z" fill="#737373" transform="matrix(-1 1.22465e-16 -1.2281e-16 -1.00282 1168 512)"/><path d="M244.818 226.312 248.516 226.312 248.516 230.01 244.818 230.01Z" fill="#737373" transform="matrix(-1 1.22465e-16 -1.2281e-16 -1.00282 1168 512)"/><path d="M255.912 226.312 259.61 226.312 259.61 230.01 255.912 230.01Z" fill="#737373" transform="matrix(-1 1.22465e-16 -1.2281e-16 -1.00282 1168 512)"/><path d="M267.006 226.312 270.704 226.312 270.704 230.01 267.006 230.01Z" fill="#737373" transform="matrix(-1 1.22465e-16 -1.2281e-16 -1.00282 1168 512)"/><path d="M278.1 226.312 281.798 226.312 281.798 230.01 278.1 230.01Z" fill="#737373" transform="matrix(-1 1.22465e-16 -1.2281e-16 -1.00282 1168 512)"/><path d="M289.193 226.312 292.891 226.312 292.891 230.01 289.193 230.01Z" fill="#737373" transform="matrix(-1 1.22465e-16 -1.2281e-16 -1.00282 1168 512)"/><path d="M300.287 226.312 303.985 226.312 303.985 230.01 300.287 230.01Z" fill="#737373" transform="matrix(-1 1.22465e-16 -1.2281e-16 -1.00282 1168 512)"/><path d="M178.256 237.406 181.954 237.406 181.954 241.104 178.256 241.104Z" fill="#737373" transform="matrix(-1 1.22465e-16 -1.2281e-16 -1.00282 1168 512)"/><path d="M189.35 237.406 193.048 237.406 193.048 241.104 189.35 241.104Z" fill="#737373" transform="matrix(-1 1.22465e-16 -1.2281e-16 -1.00282 1168 512)"/><path d="M200.443 237.406 204.141 237.406 204.141 241.104 200.443 241.104Z" fill="#737373" transform="matrix(-1 1.22465e-16 -1.2281e-16 -1.00282 1168 512)"/><path d="M211.537 237.406 215.235 237.406 215.235 241.104 211.537 241.104Z" fill="#737373" transform="matrix(-1 1.22465e-16 -1.2281e-16 -1.00282 1168 512)"/><path d="M222.631 237.406 226.329 237.406 226.329 241.104 222.631 241.104Z" fill="#737373" transform="matrix(-1 1.22465e-16 -1.2281e-16 -1.00282 1168 512)"/><path d="M233.725 237.406 237.423 237.406 237.423 241.104 233.725 241.104Z" fill="#737373" transform="matrix(-1 1.22465e-16 -1.2281e-16 -1.00282 1168 512)"/><path d="M244.818 237.406 248.516 237.406 248.516 241.104 244.818 241.104Z" fill="#737373" transform="matrix(-1 1.22465e-16 -1.2281e-16 -1.00282 1168 512)"/><path d="M255.912 237.406 259.61 237.406 259.61 241.104 255.912 241.104Z" fill="#737373" transform="matrix(-1 1.22465e-16 -1.2281e-16 -1.00282 1168 512)"/><path d="M267.006 237.406 270.704 237.406 270.704 241.104 267.006 241.104Z" fill="#737373" transform="matrix(-1 1.22465e-16 -1.2281e-16 -1.00282 1168 512)"/><path d="M278.1 237.406 281.798 237.406 281.798 241.104 278.1 241.104Z" fill="#737373" transform="matrix(-1 1.22465e-16 -1.2281e-16 -1.00282 1168 512)"/><path d="M289.193 237.406 292.891 237.406 292.891 241.104 289.193 241.104Z" fill="#737373" transform="matrix(-1 1.22465e-16 -1.2281e-16 -1.00282 1168 512)"/><path d="M300.287 237.406 303.985 237.406 303.985 241.104 300.287 241.104Z" fill="#737373" transform="matrix(-1 1.22465e-16 -1.2281e-16 -1.00282 1168 512)"/><path d="M178.256 248.5 181.954 248.5 181.954 252.198 178.256 252.198Z" fill="#737373" transform="matrix(-1 1.22465e-16 -1.2281e-16 -1.00282 1168 512)"/><path d="M189.35 248.5 193.048 248.5 193.048 252.198 189.35 252.198Z" fill="#737373" transform="matrix(-1 1.22465e-16 -1.2281e-16 -1.00282 1168 512)"/><path d="M200.443 248.5 204.141 248.5 204.141 252.198 200.443 252.198Z" fill="#737373" transform="matrix(-1 1.22465e-16 -1.2281e-16 -1.00282 1168 512)"/><path d="M211.537 248.5 215.235 248.5 215.235 252.198 211.537 252.198Z" fill="#737373" transform="matrix(-1 1.22465e-16 -1.2281e-16 -1.00282 1168 512)"/><path d="M222.631 248.5 226.329 248.5 226.329 252.198 222.631 252.198Z" fill="#737373" transform="matrix(-1 1.22465e-16 -1.2281e-16 -1.00282 1168 512)"/><path d="M233.725 248.5 237.423 248.5 237.423 252.198 233.725 252.198Z" fill="#737373" transform="matrix(-1 1.22465e-16 -1.2281e-16 -1.00282 1168 512)"/><path d="M244.818 248.5 248.516 248.5 248.516 252.198 244.818 252.198Z" fill="#737373" transform="matrix(-1 1.22465e-16 -1.2281e-16 -1.00282 1168 512)"/><path d="M255.912 248.5 259.61 248.5 259.61 252.198 255.912 252.198Z" fill="#737373" transform="matrix(-1 1.22465e-16 -1.2281e-16 -1.00282 1168 512)"/><path d="M267.006 248.5 270.704 248.5 270.704 252.198 267.006 252.198Z" fill="#737373" transform="matrix(-1 1.22465e-16 -1.2281e-16 -1.00282 1168 512)"/><path d="M278.1 248.5 281.798 248.5 281.798 252.198 278.1 252.198Z" fill="#737373" transform="matrix(-1 1.22465e-16 -1.2281e-16 -1.00282 1168 512)"/><path d="M289.193 248.5 292.891 248.5 292.891 252.198 289.193 252.198Z" fill="#737373" transform="matrix(-1 1.22465e-16 -1.2281e-16 -1.00282 1168 512)"/><path d="M300.287 248.5 303.985 248.5 303.985 252.198 300.287 252.198Z" fill="#737373" transform="matrix(-1 1.22465e-16 -1.2281e-16 -1.00282 1168 512)"/><path d="M178.256 259.594 181.954 259.594 181.954 263.292 178.256 263.292Z" fill="#737373" transform="matrix(-1 1.22465e-16 -1.2281e-16 -1.00282 1168 512)"/><path d="M189.35 259.594 193.048 259.594 193.048 263.292 189.35 263.292Z" fill="#737373" transform="matrix(-1 1.22465e-16 -1.2281e-16 -1.00282 1168 512)"/><path d="M200.443 259.594 204.141 259.594 204.141 263.292 200.443 263.292Z" fill="#737373" transform="matrix(-1 1.22465e-16 -1.2281e-16 -1.00282 1168 512)"/><path d="M211.537 259.594 215.235 259.594 215.235 263.292 211.537 263.292Z" fill="#737373" transform="matrix(-1 1.22465e-16 -1.2281e-16 -1.00282 1168 512)"/><path d="M222.631 259.594 226.329 259.594 226.329 263.292 222.631 263.292Z" fill="#737373" transform="matrix(-1 1.22465e-16 -1.2281e-16 -1.00282 1168 512)"/><path d="M233.725 259.594 237.423 259.594 237.423 263.292 233.725 263.292Z" fill="#737373" transform="matrix(-1 1.22465e-16 -1.2281e-16 -1.00282 1168 512)"/><path d="M244.818 259.594 248.516 259.594 248.516 263.292 244.818 263.292Z" fill="#737373" transform="matrix(-1 1.22465e-16 -1.2281e-16 -1.00282 1168 512)"/><path d="M255.912 259.594 259.61 259.594 259.61 263.292 255.912 263.292Z" fill="#737373" transform="matrix(-1 1.22465e-16 -1.2281e-16 -1.00282 1168 512)"/><path d="M267.006 259.594 270.704 259.594 270.704 263.292 267.006 263.292Z" fill="#737373" transform="matrix(-1 1.22465e-16 -1.2281e-16 -1.00282 1168 512)"/><path d="M278.1 259.594 281.798 259.594 281.798 263.292 278.1 263.292Z" fill="#737373" transform="matrix(-1 1.22465e-16 -1.2281e-16 -1.00282 1168 512)"/><path d="M289.193 259.594 292.891 259.594 292.891 263.292 289.193 263.292Z" fill="#737373" transform="matrix(-1 1.22465e-16 -1.2281e-16 -1.00282 1168 512)"/><path d="M300.287 259.594 303.985 259.594 303.985 263.292 300.287 263.292Z" fill="#737373" transform="matrix(-1 1.22465e-16 -1.2281e-16 -1.00282 1168 512)"/><path d="M178.256 270.688 181.954 270.688 181.954 274.385 178.256 274.385Z" fill="#737373" transform="matrix(-1 1.22465e-16 -1.2281e-16 -1.00282 1168 512)"/><path d="M189.35 270.688 193.048 270.688 193.048 274.385 189.35 274.385Z" fill="#737373" transform="matrix(-1 1.22465e-16 -1.2281e-16 -1.00282 1168 512)"/><path d="M200.443 270.688 204.141 270.688 204.141 274.385 200.443 274.385Z" fill="#737373" transform="matrix(-1 1.22465e-16 -1.2281e-16 -1.00282 1168 512)"/><path d="M211.537 270.688 215.235 270.688 215.235 274.385 211.537 274.385Z" fill="#737373" transform="matrix(-1 1.22465e-16 -1.2281e-16 -1.00282 1168 512)"/><path d="M222.631 270.688 226.329 270.688 226.329 274.385 222.631 274.385Z" fill="#737373" transform="matrix(-1 1.22465e-16 -1.2281e-16 -1.00282 1168 512)"/><path d="M233.725 270.688 237.423 270.688 237.423 274.385 233.725 274.385Z" fill="#737373" transform="matrix(-1 1.22465e-16 -1.2281e-16 -1.00282 1168 512)"/><path d="M244.818 270.688 248.516 270.688 248.516 274.385 244.818 274.385Z" fill="#737373" transform="matrix(-1 1.22465e-16 -1.2281e-16 -1.00282 1168 512)"/><path d="M255.912 270.688 259.61 270.688 259.61 274.385 255.912 274.385Z" fill="#737373" transform="matrix(-1 1.22465e-16 -1.2281e-16 -1.00282 1168 512)"/><path d="M267.006 270.688 270.704 270.688 270.704 274.385 267.006 274.385Z" fill="#737373" transform="matrix(-1 1.22465e-16 -1.2281e-16 -1.00282 1168 512)"/><path d="M278.1 270.688 281.798 270.688 281.798 274.385 278.1 274.385Z" fill="#737373" transform="matrix(-1 1.22465e-16 -1.2281e-16 -1.00282 1168 512)"/><path d="M289.193 270.688 292.891 270.688 292.891 274.385 289.193 274.385Z" fill="#737373" transform="matrix(-1 1.22465e-16 -1.2281e-16 -1.00282 1168 512)"/><path d="M300.287 270.688 303.985 270.688 303.985 274.385 300.287 274.385Z" fill="#737373" transform="matrix(-1 1.22465e-16 -1.2281e-16 -1.00282 1168 512)"/><path d="M178.256 281.781 181.954 281.781 181.954 285.479 178.256 285.479Z" fill="#737373" transform="matrix(-1 1.22465e-16 -1.2281e-16 -1.00282 1168 512)"/><path d="M189.35 281.781 193.048 281.781 193.048 285.479 189.35 285.479Z" fill="#737373" transform="matrix(-1 1.22465e-16 -1.2281e-16 -1.00282 1168 512)"/><path d="M200.443 281.781 204.141 281.781 204.141 285.479 200.443 285.479Z" fill="#737373" transform="matrix(-1 1.22465e-16 -1.2281e-16 -1.00282 1168 512)"/><path d="M211.537 281.781 215.235 281.781 215.235 285.479 211.537 285.479Z" fill="#737373" transform="matrix(-1 1.22465e-16 -1.2281e-16 -1.00282 1168 512)"/><path d="M222.631 281.781 226.329 281.781 226.329 285.479 222.631 285.479Z" fill="#737373" transform="matrix(-1 1.22465e-16 -1.2281e-16 -1.00282 1168 512)"/><path d="M233.725 281.781 237.423 281.781 237.423 285.479 233.725 285.479Z" fill="#737373" transform="matrix(-1 1.22465e-16 -1.2281e-16 -1.00282 1168 512)"/><path d="M244.818 281.781 248.516 281.781 248.516 285.479 244.818 285.479Z" fill="#737373" transform="matrix(-1 1.22465e-16 -1.2281e-16 -1.00282 1168 512)"/><path d="M255.912 281.781 259.61 281.781 259.61 285.479 255.912 285.479Z" fill="#737373" transform="matrix(-1 1.22465e-16 -1.2281e-16 -1.00282 1168 512)"/><path d="M267.006 281.781 270.704 281.781 270.704 285.479 267.006 285.479Z" fill="#737373" transform="matrix(-1 1.22465e-16 -1.2281e-16 -1.00282 1168 512)"/><path d="M278.1 281.781 281.798 281.781 281.798 285.479 278.1 285.479Z" fill="#737373" transform="matrix(-1 1.22465e-16 -1.2281e-16 -1.00282 1168 512)"/><path d="M289.193 281.781 292.891 281.781 292.891 285.479 289.193 285.479Z" fill="#737373" transform="matrix(-1 1.22465e-16 -1.2281e-16 -1.00282 1168 512)"/><path d="M300.287 281.781 303.985 281.781 303.985 285.479 300.287 285.479Z" fill="#737373" transform="matrix(-1 1.22465e-16 -1.2281e-16 -1.00282 1168 512)"/><path d="M118.977 157.67 102.28 136.961 85.5824 157.669 68.8826 136.96 53.3336 156.241 51.0312 154.384 68.8826 132.248 85.5824 152.956 102.28 132.247 118.977 152.955 135.674 132.247 153.522 154.384 151.22 156.241 135.674 136.961Z" fill="#737373" transform="matrix(-1 1.22465e-16 -1.2281e-16 -1.00282 1168 512)"/><path d="M118.977 135.482 102.28 114.774 85.5824 135.481 68.8826 114.773 53.3336 134.053 51.0312 132.197 68.8826 110.06 85.5824 130.769 102.28 110.06 118.977 130.768 135.674 110.06 153.522 132.197 151.22 134.053 135.674 114.774Z" fill="#737373" transform="matrix(-1 1.22465e-16 -1.2281e-16 -1.00282 1168 512)"/></g></svg>