<svg width="291" height="291" xmlns="http://www.w3.org/2000/svg" xmlns:xlink="http://www.w3.org/1999/xlink" xml:space="preserve" overflow="hidden"><g transform="translate(-636 -322)"><path d="M781.576 395.303 708.826 395.303C698.781 395.303 690.638 403.447 690.638 413.491L690.638 449.866C690.638 459.91 698.781 468.053 708.826 468.053L708.826 485.74 726.407 468.053 763.237 468.053 781.576 468.053C791.62 468.053 799.763 459.91 799.763 449.866L799.763 449.26 799.763 413.491C799.763 403.447 791.62 395.303 781.576 395.303Z" fill="#737373"/><path d="M854.174 449.26 799.763 449.26 781.424 449.26C771.38 449.26 763.237 457.403 763.237 467.447L763.237 468.053 763.237 503.822C763.237 513.867 771.38 522.01 781.424 522.01L836.593 522.01 854.174 539.696 854.174 522.01C864.219 522.01 872.362 513.867 872.362 503.822L872.362 467.447C872.362 457.403 864.219 449.26 854.174 449.26Z" fill="#207390"/><path d="M799.763 449.821 799.763 449.219C799.763 449.215 799.761 449.213 799.757 449.213L781.379 449.213C771.309 449.213 763.146 457.376 763.146 467.446L763.146 468.047C763.146 468.051 763.148 468.053 763.152 468.053L781.53 468.053C791.6 468.053 799.763 459.89 799.763 449.821Z" fill="#505050"/><path d="M799.915 488.06C799.915 489.734 798.558 491.091 796.884 491.091 795.209 491.091 793.852 489.734 793.852 488.06 793.852 486.386 795.209 485.029 796.884 485.029 798.558 485.029 799.915 486.386 799.915 488.06Z" fill="#FFFFFF"/><path d="M813.859 488.06C813.859 489.734 812.501 491.091 810.827 491.091 809.153 491.091 807.796 489.734 807.796 488.06 807.796 486.386 809.153 485.029 810.827 485.029 812.501 485.029 813.859 486.386 813.859 488.06Z" fill="#FFFFFF"/><path d="M827.802 488.06C827.802 489.734 826.445 491.091 824.771 491.091 823.097 491.091 821.74 489.734 821.74 488.06 821.74 486.386 823.097 485.029 824.771 485.029 826.445 485.029 827.802 486.386 827.802 488.06Z" fill="#FFFFFF"/><path d="M841.746 488.06C841.746 489.734 840.389 491.091 838.715 491.091 837.041 491.091 835.684 489.734 835.684 488.06 835.684 486.386 837.041 485.029 838.715 485.029 840.389 485.029 841.746 486.386 841.746 488.06Z" fill="#FFFFFF"/><path d="M727.316 434.104C727.316 435.778 725.959 437.135 724.285 437.135 722.611 437.135 721.254 435.778 721.254 434.104 721.254 432.429 722.611 431.072 724.285 431.072 725.959 431.072 727.316 432.429 727.316 434.104Z" fill="#FFFFFF"/><path d="M741.26 434.104C741.26 435.778 739.903 437.135 738.229 437.135 736.555 437.135 735.198 435.778 735.198 434.104 735.198 432.429 736.555 431.072 738.229 431.072 739.903 431.072 741.26 432.429 741.26 434.104Z" fill="#FFFFFF"/><path d="M755.204 434.104C755.204 435.778 753.847 437.135 752.173 437.135 750.499 437.135 749.141 435.778 749.141 434.104 749.141 432.429 750.499 431.072 752.173 431.072 753.847 431.072 755.204 432.429 755.204 434.104Z" fill="#FFFFFF"/><path d="M769.148 434.104C769.148 435.778 767.791 437.135 766.116 437.135 764.442 437.135 763.085 435.778 763.085 434.104 763.085 432.429 764.442 431.072 766.116 431.072 767.791 431.072 769.148 432.429 769.148 434.104Z" fill="#FFFFFF"/></g></svg>