<svg width="275" height="275" xmlns="http://www.w3.org/2000/svg" xmlns:xlink="http://www.w3.org/1999/xlink" xml:space="preserve" overflow="hidden"><g transform="translate(-432 -223)"><path d="M471.531 330.708C471.531 292.739 502.312 261.958 540.281 261.958 578.251 261.958 609.031 292.739 609.031 330.708 609.031 368.678 578.251 399.458 540.281 399.458 502.312 399.458 471.531 368.678 471.531 330.708Z" fill="#BBEFC2"/><path d="M630.426 449.974C631.614 449.974 632.578 449.01 632.578 447.822L632.578 447.822C632.578 446.634 631.614 445.67 630.426 445.67 629.237 445.67 628.274 446.634 628.274 447.822L628.274 447.822C628.273 449.01 629.237 449.974 630.426 449.974Z" fill="#BBEFC2"/><path d="M617.514 449.974C618.702 449.974 619.666 449.01 619.666 447.822L619.666 447.822C619.666 446.634 618.702 445.67 617.514 445.67 616.325 445.67 615.362 446.634 615.362 447.822L615.362 447.822C615.361 449.01 616.325 449.974 617.514 449.974Z" fill="#BBEFC2"/><path d="M604.602 449.974C605.79 449.974 606.754 449.01 606.754 447.822L606.754 447.822C606.754 446.634 605.79 445.67 604.602 445.67 603.413 445.67 602.45 446.634 602.45 447.822L602.45 447.822C602.45 449.01 603.413 449.974 604.602 449.974Z" fill="#BBEFC2"/><path d="M591.69 449.974C592.878 449.974 593.841 449.01 593.841 447.822L593.841 447.822C593.841 446.634 592.878 445.67 591.69 445.67 590.501 445.67 589.538 446.634 589.538 447.822L589.538 447.822C589.538 449.01 590.501 449.974 591.69 449.974Z" fill="#BBEFC2"/><path d="M578.778 449.974C579.967 449.974 580.93 449.01 580.93 447.822L580.93 447.822C580.93 446.634 579.966 445.67 578.778 445.67 577.59 445.67 576.626 446.634 576.626 447.822L576.626 447.822C576.626 449.01 577.59 449.974 578.778 449.974Z" fill="#BBEFC2"/><path d="M565.866 449.974C567.055 449.974 568.018 449.01 568.018 447.822L568.018 447.822C568.018 446.634 567.054 445.67 565.866 445.67 564.678 445.67 563.714 446.634 563.714 447.822L563.714 447.822C563.714 449.01 564.678 449.974 565.866 449.974Z" fill="#BBEFC2"/><path d="M643.338 437.062C644.526 437.062 645.489 436.099 645.489 434.91 645.489 433.722 644.526 432.759 643.338 432.759 642.149 432.759 641.186 433.722 641.186 434.91 641.186 436.099 642.149 437.062 643.338 437.062Z" fill="#BBEFC2"/><path d="M630.426 437.062C631.614 437.062 632.578 436.099 632.578 434.91 632.578 433.722 631.614 432.759 630.426 432.759 629.237 432.759 628.274 433.722 628.274 434.91 628.273 436.099 629.237 437.062 630.426 437.062Z" fill="#BBEFC2"/><path d="M617.514 437.062C618.702 437.062 619.666 436.099 619.666 434.91 619.666 433.722 618.702 432.759 617.514 432.759 616.325 432.759 615.362 433.722 615.362 434.91 615.361 436.099 616.325 437.062 617.514 437.062Z" fill="#BBEFC2"/><path d="M604.602 437.062C605.79 437.062 606.754 436.099 606.754 434.91 606.754 433.722 605.79 432.759 604.602 432.759 603.413 432.759 602.45 433.722 602.45 434.91 602.45 436.099 603.413 437.062 604.602 437.062Z" fill="#BBEFC2"/><path d="M591.69 437.062C592.878 437.062 593.841 436.099 593.841 434.91 593.841 433.722 592.878 432.759 591.69 432.759 590.501 432.759 589.538 433.722 589.538 434.91 589.538 436.099 590.501 437.062 591.69 437.062Z" fill="#BBEFC2"/><path d="M578.778 437.062C579.967 437.062 580.93 436.099 580.93 434.91 580.93 433.722 579.966 432.759 578.778 432.759 577.59 432.759 576.626 433.722 576.626 434.91 576.626 436.099 577.59 437.062 578.778 437.062Z" fill="#BBEFC2"/><path d="M565.866 437.062C567.055 437.062 568.018 436.099 568.018 434.91 568.018 433.722 567.054 432.759 565.866 432.759 564.678 432.759 563.714 433.722 563.714 434.91 563.714 436.099 564.678 437.062 565.866 437.062Z" fill="#BBEFC2"/><path d="M552.954 437.062C554.143 437.062 555.106 436.099 555.106 434.91 555.106 433.722 554.142 432.759 552.954 432.759 551.766 432.759 550.802 433.722 550.802 434.91 550.802 436.099 551.766 437.062 552.954 437.062Z" fill="#BBEFC2"/><path d="M656.249 424.15C657.438 424.15 658.401 423.187 658.401 421.999 658.401 420.81 657.438 419.847 656.249 419.847 655.061 419.847 654.097 420.81 654.097 421.999 654.097 423.187 655.061 424.15 656.249 424.15Z" fill="#BBEFC2"/><path d="M643.338 424.15C644.526 424.15 645.489 423.187 645.489 421.999 645.489 420.81 644.526 419.847 643.338 419.847 642.149 419.847 641.186 420.81 641.186 421.999 641.186 423.187 642.149 424.15 643.338 424.15Z" fill="#BBEFC2"/><path d="M630.426 424.15C631.614 424.15 632.578 423.187 632.578 421.999 632.578 420.81 631.614 419.847 630.426 419.847 629.237 419.847 628.274 420.81 628.274 421.999 628.274 423.187 629.237 424.15 630.426 424.15Z" fill="#BBEFC2"/><path d="M617.514 424.15C618.702 424.15 619.666 423.187 619.666 421.999 619.666 420.81 618.702 419.847 617.514 419.847 616.325 419.847 615.362 420.81 615.362 421.999 615.362 423.187 616.325 424.15 617.514 424.15Z" fill="#BBEFC2"/><path d="M602.45 421.999C602.45 420.81 603.414 419.847 604.602 419.847 605.79 419.847 606.754 420.81 606.754 421.999 606.754 423.187 605.79 424.15 604.602 424.15 603.414 424.15 602.45 423.187 602.45 421.999Z" fill="#BBEFC2"/><path d="M589.538 421.999C589.538 420.81 590.501 419.847 591.69 419.847 592.878 419.847 593.841 420.81 593.841 421.999 593.841 423.187 592.878 424.15 591.69 424.15 590.501 424.15 589.538 423.187 589.538 421.999Z" fill="#BBEFC2"/><path d="M578.778 424.15C579.967 424.15 580.93 423.187 580.93 421.999 580.93 420.81 579.966 419.847 578.778 419.847 577.59 419.847 576.626 420.81 576.626 421.999 576.626 423.187 577.59 424.15 578.778 424.15Z" fill="#BBEFC2"/><path d="M565.866 424.15C567.055 424.15 568.018 423.187 568.018 421.999 568.018 420.81 567.054 419.847 565.866 419.847 564.678 419.847 563.714 420.81 563.714 421.999 563.714 423.187 564.678 424.15 565.866 424.15Z" fill="#BBEFC2"/><path d="M552.954 424.15C554.143 424.15 555.106 423.187 555.106 421.999 555.106 420.81 554.142 419.847 552.954 419.847 551.766 419.847 550.802 420.81 550.802 421.999 550.802 423.187 551.766 424.15 552.954 424.15Z" fill="#BBEFC2"/><path d="M540.042 419.846C538.854 419.846 537.89 420.81 537.89 421.998 537.89 423.186 538.854 424.15 540.042 424.15 541.231 424.15 542.194 423.186 542.194 421.998 542.194 420.81 541.231 419.846 540.042 419.846Z" fill="#BBEFC2"/><path d="M656.249 411.239C657.438 411.239 658.401 410.275 658.401 409.087 658.401 407.899 657.438 406.935 656.249 406.935 655.061 406.935 654.097 407.899 654.097 409.087 654.097 410.275 655.061 411.239 656.249 411.239Z" fill="#BBEFC2"/><path d="M643.338 411.239C644.526 411.239 645.489 410.275 645.489 409.087 645.489 407.899 644.526 406.935 643.338 406.935 642.149 406.935 641.186 407.899 641.186 409.087 641.186 410.275 642.149 411.239 643.338 411.239Z" fill="#BBEFC2"/><path d="M630.426 411.239C631.614 411.239 632.578 410.275 632.578 409.087 632.578 407.899 631.614 406.935 630.426 406.935 629.237 406.935 628.274 407.899 628.274 409.087 628.274 410.275 629.237 411.239 630.426 411.239Z" fill="#BBEFC2"/><path d="M617.514 411.239C618.702 411.239 619.666 410.275 619.666 409.087 619.666 407.899 618.702 406.935 617.514 406.935 616.325 406.935 615.362 407.899 615.362 409.087 615.362 410.275 616.325 411.239 617.514 411.239Z" fill="#BBEFC2"/><path d="M604.602 411.239C605.79 411.239 606.754 410.275 606.754 409.087 606.754 407.899 605.79 406.935 604.602 406.935 603.413 406.935 602.45 407.899 602.45 409.087 602.45 410.275 603.413 411.239 604.602 411.239Z" fill="#BBEFC2"/><path d="M591.69 411.239C592.878 411.239 593.841 410.275 593.841 409.087 593.841 407.899 592.878 406.935 591.69 406.935 590.501 406.935 589.538 407.899 589.538 409.087 589.538 410.275 590.501 411.239 591.69 411.239Z" fill="#BBEFC2"/><path d="M578.778 411.239C579.967 411.239 580.93 410.275 580.93 409.087 580.93 407.899 579.966 406.935 578.778 406.935 577.59 406.935 576.626 407.899 576.626 409.087 576.626 410.275 577.59 411.239 578.778 411.239Z" fill="#BBEFC2"/><path d="M565.866 411.239C567.055 411.239 568.018 410.275 568.018 409.087 568.018 407.899 567.054 406.935 565.866 406.935 564.678 406.935 563.714 407.899 563.714 409.087 563.714 410.275 564.678 411.239 565.866 411.239Z" fill="#BBEFC2"/><path d="M552.954 411.239C554.143 411.239 555.106 410.275 555.106 409.087 555.106 407.899 554.142 406.935 552.954 406.935 551.766 406.935 550.802 407.899 550.802 409.087 550.802 410.275 551.766 411.239 552.954 411.239Z" fill="#BBEFC2"/><path d="M540.042 406.934C538.854 406.934 537.89 407.898 537.89 409.086 537.89 410.274 538.854 411.238 540.042 411.238 541.231 411.238 542.194 410.274 542.194 409.086 542.194 407.898 541.231 406.934 540.042 406.934Z" fill="#BBEFC2"/><path d="M656.249 398.327C657.438 398.327 658.401 397.363 658.401 396.175 658.401 394.987 657.438 394.023 656.249 394.023 655.061 394.023 654.097 394.987 654.097 396.175 654.097 397.363 655.061 398.327 656.249 398.327Z" fill="#BBEFC2"/><path d="M643.338 398.327C644.526 398.327 645.489 397.363 645.489 396.175 645.489 394.987 644.526 394.023 643.338 394.023 642.149 394.023 641.186 394.987 641.186 396.175 641.186 397.363 642.149 398.327 643.338 398.327Z" fill="#BBEFC2"/><path d="M630.426 398.327C631.614 398.327 632.578 397.363 632.578 396.175 632.578 394.987 631.614 394.023 630.426 394.023 629.237 394.023 628.274 394.987 628.274 396.175 628.274 397.363 629.237 398.327 630.426 398.327Z" fill="#BBEFC2"/><path d="M617.514 398.327C618.702 398.327 619.666 397.363 619.666 396.175 619.666 394.987 618.702 394.023 617.514 394.023 616.325 394.023 615.362 394.987 615.362 396.175 615.362 397.363 616.325 398.327 617.514 398.327Z" fill="#BBEFC2"/><path d="M602.45 396.175C602.45 394.986 603.414 394.023 604.602 394.023 605.79 394.023 606.754 394.987 606.754 396.175 606.754 397.363 605.79 398.327 604.602 398.327 603.414 398.327 602.45 397.363 602.45 396.175Z" fill="#BBEFC2"/><path d="M589.538 396.175C589.538 394.986 590.501 394.023 591.69 394.023 592.878 394.023 593.841 394.987 593.841 396.175 593.841 397.363 592.878 398.327 591.69 398.327 590.501 398.327 589.538 397.363 589.538 396.175Z" fill="#BBEFC2"/><path d="M578.778 398.327C579.967 398.327 580.93 397.363 580.93 396.175 580.93 394.987 579.966 394.023 578.778 394.023 577.59 394.023 576.626 394.987 576.626 396.175 576.626 397.363 577.59 398.327 578.778 398.327Z" fill="#BBEFC2"/><path d="M565.866 398.327C567.055 398.327 568.018 397.363 568.018 396.175 568.018 394.987 567.054 394.023 565.866 394.023 564.678 394.023 563.714 394.987 563.714 396.175 563.714 397.363 564.678 398.327 565.866 398.327Z" fill="#BBEFC2"/><path d="M552.954 398.327C554.143 398.327 555.106 397.363 555.106 396.175 555.106 394.987 554.142 394.023 552.954 394.023 551.766 394.023 550.802 394.987 550.802 396.175 550.802 397.363 551.766 398.327 552.954 398.327Z" fill="#BBEFC2"/><path d="M540.042 394.022C538.854 394.022 537.89 394.986 537.89 396.174 537.89 397.363 538.854 398.326 540.042 398.326 541.231 398.326 542.194 397.363 542.194 396.174 542.194 394.986 541.231 394.022 540.042 394.022Z" fill="#BBEFC2"/><path d="M656.249 385.415C657.438 385.415 658.401 384.451 658.401 383.263 658.401 382.075 657.438 381.111 656.249 381.111 655.061 381.111 654.097 382.075 654.097 383.263 654.097 384.451 655.061 385.415 656.249 385.415Z" fill="#BBEFC2"/><path d="M643.338 385.415C644.526 385.415 645.489 384.451 645.489 383.263 645.489 382.075 644.526 381.111 643.338 381.111 642.149 381.111 641.186 382.075 641.186 383.263 641.186 384.451 642.149 385.415 643.338 385.415Z" fill="#BBEFC2"/><path d="M630.426 385.415C631.614 385.415 632.578 384.451 632.578 383.263 632.578 382.075 631.614 381.111 630.426 381.111 629.237 381.111 628.274 382.075 628.274 383.263 628.274 384.451 629.237 385.415 630.426 385.415Z" fill="#BBEFC2"/><path d="M617.514 385.415C618.702 385.415 619.666 384.451 619.666 383.263 619.666 382.075 618.702 381.111 617.514 381.111 616.325 381.111 615.362 382.075 615.362 383.263 615.362 384.451 616.325 385.415 617.514 385.415Z" fill="#BBEFC2"/><path d="M604.602 385.415C605.79 385.415 606.754 384.451 606.754 383.263 606.754 382.075 605.79 381.111 604.602 381.111 603.413 381.111 602.45 382.075 602.45 383.263 602.45 384.451 603.413 385.415 604.602 385.415Z" fill="#BBEFC2"/><path d="M591.69 385.415C592.878 385.415 593.841 384.451 593.841 383.263 593.841 382.075 592.878 381.111 591.69 381.111 590.501 381.111 589.538 382.075 589.538 383.263 589.538 384.451 590.501 385.415 591.69 385.415Z" fill="#BBEFC2"/><path d="M578.778 385.415C579.967 385.415 580.93 384.451 580.93 383.263 580.93 382.075 579.966 381.111 578.778 381.111 577.59 381.111 576.626 382.075 576.626 383.263 576.626 384.451 577.59 385.415 578.778 385.415Z" fill="#BBEFC2"/><path d="M565.866 385.415C567.055 385.415 568.018 384.451 568.018 383.263 568.018 382.075 567.054 381.111 565.866 381.111 564.678 381.111 563.714 382.075 563.714 383.263 563.714 384.451 564.678 385.415 565.866 385.415Z" fill="#BBEFC2"/><path d="M552.954 385.415C554.143 385.415 555.106 384.451 555.106 383.263 555.106 382.075 554.142 381.111 552.954 381.111 551.766 381.111 550.802 382.075 550.802 383.263 550.802 384.451 551.766 385.415 552.954 385.415Z" fill="#BBEFC2"/><path d="M540.042 381.111C538.854 381.111 537.89 382.074 537.89 383.263 537.89 384.451 538.854 385.414 540.042 385.414 541.231 385.414 542.194 384.451 542.194 383.263 542.194 382.074 541.231 381.111 540.042 381.111Z" fill="#BBEFC2"/><path d="M656.249 372.503C657.438 372.503 658.401 371.54 658.401 370.351L658.401 370.351C658.401 369.163 657.438 368.199 656.249 368.199 655.061 368.199 654.097 369.163 654.097 370.351L654.097 370.351C654.097 371.54 655.061 372.503 656.249 372.503Z" fill="#BBEFC2"/><path d="M643.338 372.503C644.526 372.503 645.489 371.54 645.489 370.351L645.489 370.351C645.489 369.163 644.526 368.199 643.338 368.199 642.149 368.199 641.186 369.163 641.186 370.351L641.186 370.351C641.186 371.54 642.149 372.503 643.338 372.503Z" fill="#BBEFC2"/><path d="M630.426 372.503C631.614 372.503 632.578 371.54 632.578 370.351L632.578 370.351C632.578 369.163 631.614 368.199 630.426 368.199 629.237 368.199 628.274 369.163 628.274 370.351L628.274 370.351C628.273 371.54 629.237 372.503 630.426 372.503Z" fill="#BBEFC2"/><path d="M617.514 372.503C618.702 372.503 619.666 371.54 619.666 370.351L619.666 370.351C619.666 369.163 618.702 368.199 617.514 368.199 616.325 368.199 615.362 369.163 615.362 370.351L615.362 370.351C615.361 371.54 616.325 372.503 617.514 372.503Z" fill="#BBEFC2"/><path d="M604.602 372.503C605.79 372.503 606.754 371.54 606.754 370.351L606.754 370.351C606.754 369.163 605.79 368.199 604.602 368.199 603.413 368.199 602.45 369.163 602.45 370.351L602.45 370.351C602.45 371.54 603.413 372.503 604.602 372.503Z" fill="#BBEFC2"/><path d="M591.69 372.503C592.878 372.503 593.841 371.54 593.841 370.351L593.841 370.351C593.841 369.163 592.878 368.199 591.69 368.199 590.501 368.199 589.538 369.163 589.538 370.351L589.538 370.351C589.538 371.54 590.501 372.503 591.69 372.503Z" fill="#BBEFC2"/><path d="M578.778 372.503C579.967 372.503 580.93 371.54 580.93 370.351L580.93 370.351C580.93 369.163 579.966 368.199 578.778 368.199 577.59 368.199 576.626 369.163 576.626 370.351L576.626 370.351C576.626 371.54 577.59 372.503 578.778 372.503Z" fill="#BBEFC2"/><path d="M565.866 372.503C567.055 372.503 568.018 371.54 568.018 370.351L568.018 370.351C568.018 369.163 567.054 368.199 565.866 368.199 564.678 368.199 563.714 369.163 563.714 370.351L563.714 370.351C563.714 371.54 564.678 372.503 565.866 372.503Z" fill="#BBEFC2"/><path d="M552.954 372.503C554.143 372.503 555.106 371.54 555.106 370.351L555.106 370.351C555.106 369.163 554.142 368.199 552.954 368.199 551.766 368.199 550.802 369.163 550.802 370.351L550.802 370.351C550.802 371.54 551.766 372.503 552.954 372.503Z" fill="#BBEFC2"/><path d="M540.042 368.199C538.854 368.199 537.89 369.162 537.89 370.351L537.89 370.351C537.89 371.539 538.854 372.503 540.042 372.503 541.231 372.503 542.194 371.539 542.194 370.351L542.194 370.351C542.194 369.162 541.231 368.199 540.042 368.199Z" fill="#BBEFC2"/><path d="M656.249 359.591C657.438 359.591 658.401 358.628 658.401 357.439 658.401 356.251 657.438 355.288 656.249 355.288 655.061 355.288 654.097 356.251 654.097 357.439 654.097 358.628 655.061 359.591 656.249 359.591Z" fill="#BBEFC2"/><path d="M643.338 359.591C644.526 359.591 645.489 358.628 645.489 357.439 645.489 356.251 644.526 355.288 643.338 355.288 642.149 355.288 641.186 356.251 641.186 357.439 641.186 358.628 642.149 359.591 643.338 359.591Z" fill="#BBEFC2"/><path d="M630.426 359.591C631.614 359.591 632.578 358.628 632.578 357.439 632.578 356.251 631.614 355.288 630.426 355.288 629.237 355.288 628.274 356.251 628.274 357.439 628.273 358.628 629.237 359.591 630.426 359.591Z" fill="#BBEFC2"/><path d="M617.514 359.591C618.702 359.591 619.666 358.628 619.666 357.439 619.666 356.251 618.702 355.288 617.514 355.288 616.325 355.288 615.362 356.251 615.362 357.439 615.361 358.628 616.325 359.591 617.514 359.591Z" fill="#BBEFC2"/><path d="M602.45 357.439C602.45 356.25 603.414 355.287 604.602 355.287 605.79 355.287 606.754 356.25 606.754 357.439 606.754 358.627 605.79 359.591 604.602 359.591 603.414 359.591 602.45 358.627 602.45 357.439Z" fill="#BBEFC2"/><path d="M589.538 357.439C589.538 356.25 590.501 355.287 591.69 355.287 592.878 355.287 593.841 356.25 593.841 357.439 593.841 358.627 592.878 359.591 591.69 359.591 590.501 359.591 589.538 358.627 589.538 357.439Z" fill="#BBEFC2"/><path d="M578.778 359.591C579.967 359.591 580.93 358.628 580.93 357.439 580.93 356.251 579.966 355.288 578.778 355.288 577.59 355.288 576.626 356.251 576.626 357.439 576.626 358.628 577.59 359.591 578.778 359.591Z" fill="#BBEFC2"/><path d="M565.866 359.591C567.055 359.591 568.018 358.628 568.018 357.439 568.018 356.251 567.054 355.288 565.866 355.288 564.678 355.288 563.714 356.251 563.714 357.439 563.714 358.628 564.678 359.591 565.866 359.591Z" fill="#BBEFC2"/><path d="M552.954 359.591C554.143 359.591 555.106 358.628 555.106 357.439 555.106 356.251 554.142 355.288 552.954 355.288 551.766 355.288 550.802 356.251 550.802 357.439 550.802 358.628 551.766 359.591 552.954 359.591Z" fill="#BBEFC2"/><path d="M540.042 355.287C538.854 355.287 537.89 356.251 537.89 357.439 537.89 358.628 538.854 359.591 540.042 359.591 541.231 359.591 542.194 358.627 542.194 357.439 542.194 356.251 541.231 355.287 540.042 355.287Z" fill="#BBEFC2"/><path d="M643.338 346.679C644.526 346.679 645.489 345.715 645.489 344.527 645.489 343.339 644.526 342.375 643.338 342.375 642.149 342.375 641.186 343.339 641.186 344.527 641.186 345.715 642.149 346.679 643.338 346.679Z" fill="#BBEFC2"/><path d="M630.426 346.679C631.614 346.679 632.578 345.715 632.578 344.527 632.578 343.339 631.614 342.375 630.426 342.375 629.237 342.375 628.274 343.339 628.274 344.527 628.274 345.715 629.237 346.679 630.426 346.679Z" fill="#BBEFC2"/><path d="M617.514 346.679C618.702 346.679 619.666 345.715 619.666 344.527 619.666 343.339 618.702 342.375 617.514 342.375 616.325 342.375 615.362 343.339 615.362 344.527 615.362 345.715 616.325 346.679 617.514 346.679Z" fill="#BBEFC2"/><path d="M604.602 346.679C605.79 346.679 606.754 345.715 606.754 344.527 606.754 343.339 605.79 342.375 604.602 342.375 603.413 342.375 602.45 343.339 602.45 344.527 602.45 345.715 603.413 346.679 604.602 346.679Z" fill="#BBEFC2"/><path d="M591.69 346.679C592.878 346.679 593.841 345.715 593.841 344.527 593.841 343.339 592.878 342.375 591.69 342.375 590.501 342.375 589.538 343.339 589.538 344.527 589.538 345.715 590.501 346.679 591.69 346.679Z" fill="#BBEFC2"/><path d="M578.778 346.679C579.967 346.679 580.93 345.715 580.93 344.527 580.93 343.339 579.966 342.375 578.778 342.375 577.59 342.375 576.626 343.339 576.626 344.527 576.626 345.715 577.59 346.679 578.778 346.679Z" fill="#BBEFC2"/><path d="M565.866 346.679C567.055 346.679 568.018 345.715 568.018 344.527 568.018 343.339 567.054 342.375 565.866 342.375 564.678 342.375 563.714 343.339 563.714 344.527 563.714 345.715 564.678 346.679 565.866 346.679Z" fill="#BBEFC2"/><path d="M552.954 346.679C554.143 346.679 555.106 345.715 555.106 344.527 555.106 343.339 554.142 342.375 552.954 342.375 551.766 342.375 550.802 343.339 550.802 344.527 550.802 345.715 551.766 346.679 552.954 346.679Z" fill="#BBEFC2"/><path d="M630.426 333.767C631.614 333.767 632.578 332.803 632.578 331.615 632.578 330.427 631.614 329.463 630.426 329.463 629.237 329.463 628.274 330.427 628.274 331.615 628.274 332.803 629.237 333.767 630.426 333.767Z" fill="#BBEFC2"/><path d="M617.514 333.767C618.702 333.767 619.666 332.803 619.666 331.615 619.666 330.427 618.702 329.463 617.514 329.463 616.325 329.463 615.362 330.427 615.362 331.615 615.362 332.803 616.325 333.767 617.514 333.767Z" fill="#BBEFC2"/><path d="M602.45 331.615C602.45 330.427 603.414 329.463 604.602 329.463 605.79 329.463 606.754 330.427 606.754 331.615 606.754 332.804 605.79 333.767 604.602 333.767 603.414 333.767 602.45 332.804 602.45 331.615Z" fill="#BBEFC2"/><path d="M589.538 331.615C589.538 330.427 590.501 329.463 591.69 329.463 592.878 329.463 593.841 330.427 593.841 331.615 593.841 332.804 592.878 333.767 591.69 333.767 590.501 333.767 589.538 332.804 589.538 331.615Z" fill="#BBEFC2"/><path d="M578.778 333.767C579.967 333.767 580.93 332.803 580.93 331.615 580.93 330.427 579.966 329.463 578.778 329.463 577.59 329.463 576.626 330.427 576.626 331.615 576.626 332.803 577.59 333.767 578.778 333.767Z" fill="#BBEFC2"/><path d="M565.866 333.767C567.055 333.767 568.018 332.803 568.018 331.615 568.018 330.427 567.054 329.463 565.866 329.463 564.678 329.463 563.714 330.427 563.714 331.615 563.714 332.803 564.678 333.767 565.866 333.767Z" fill="#BBEFC2"/></g></svg>