<svg width="352" height="330" xmlns="http://www.w3.org/2000/svg" xmlns:xlink="http://www.w3.org/1999/xlink" xml:space="preserve" overflow="hidden"><defs><clipPath id="clip0"><rect x="2270" y="962" width="174" height="331"/></clipPath><clipPath id="clip1"><rect x="2270" y="962" width="174" height="331"/></clipPath><clipPath id="clip2"><rect x="2091" y="962" width="173" height="331"/></clipPath><clipPath id="clip3"><rect x="2091" y="962" width="173" height="331"/></clipPath></defs><g transform="translate(-2091 -963)"><g clip-path="url(#clip0)"><g clip-path="url(#clip1)"><g><path d="M164.762 205.952C142.107 205.952 123.571 187.417 123.571 164.762 123.571 142.107 142.107 123.571 164.762 123.571 187.417 123.571 205.952 142.107 205.952 164.762 205.952 187.417 187.417 205.952 164.762 205.952ZM257.44 139.018C255.381 131.466 252.292 124.258 248.516 117.736L257.097 91.992 237.532 72.4266 211.788 81.0079C204.923 77.2321 197.714 74.1428 190.163 72.0833L178.492 48.0555 151.032 48.0555 139.018 72.0833C131.466 74.1428 124.258 77.2321 117.736 81.0079L91.992 72.4266 72.4266 91.992 81.0079 117.736C77.2321 124.601 74.1428 131.809 72.0833 139.361L48.0555 151.032 48.0555 178.492 72.0833 190.506C74.1428 198.057 77.2321 205.266 81.0079 211.788L72.4266 237.532 91.992 257.097 117.736 248.516C124.601 252.292 131.809 255.381 139.361 257.44L151.375 281.468 178.835 281.468 190.849 257.44C198.401 255.381 205.609 252.292 212.131 248.516L237.875 257.097 257.44 237.532 248.859 211.788C252.635 204.923 255.724 197.714 257.784 190.163L281.811 178.149 281.811 150.688 257.44 139.018Z" fill="#DAFFFB" transform="matrix(1 0 0 1.00145 2113.48 963)"/></g></g></g><g clip-path="url(#clip2)"><g clip-path="url(#clip3)"><g><path d="M260.873 178.492C260.873 182.268 257.784 185.357 254.008 185.357L233.413 185.357C229.637 185.357 226.548 182.268 226.548 178.492L226.548 171.627C226.548 167.851 229.637 164.762 233.413 164.762L254.008 164.762C257.784 164.762 260.873 167.851 260.873 171.627L260.873 178.492ZM83.4107 144.167 103.319 96.7976C104.349 94.3948 106.752 92.6785 109.498 92.6785L219.339 92.6785C222.085 92.6785 224.488 94.3948 225.518 96.7976L246.113 144.167 83.4107 144.167ZM102.976 178.492C102.976 182.268 99.8868 185.357 96.1111 185.357L75.5158 185.357C71.74 185.357 68.6508 182.268 68.6508 178.492L68.6508 171.627C68.6508 167.851 71.74 164.762 75.5158 164.762L96.1111 164.762C99.8868 164.762 102.976 167.851 102.976 171.627L102.976 178.492ZM260.873 144.167 238.561 91.6488C235.472 83.7539 227.921 78.9484 219.682 78.9484L192.222 78.9484 192.222 72.0833C192.222 64.5317 186.044 58.3531 178.492 58.3531L151.032 58.3531C143.48 58.3531 137.302 64.5317 137.302 72.0833L137.302 78.9484 109.841 78.9484C101.603 78.9484 94.0515 83.7539 90.9622 91.6488L68.6508 144.167C57.3234 144.167 48.0555 153.434 48.0555 164.762L48.0555 219.682C48.0555 227.234 54.2341 233.413 61.7857 233.413L68.6508 233.413 68.6508 257.44C68.6508 264.992 74.8293 271.17 82.3809 271.17L89.246 271.17C96.7976 271.17 102.976 264.992 102.976 257.44L102.976 233.413 226.548 233.413 226.548 257.44C226.548 264.992 232.726 271.17 240.278 271.17L247.143 271.17C254.694 271.17 260.873 264.992 260.873 257.44L260.873 233.413 267.738 233.413C275.29 233.413 281.468 227.234 281.468 219.682L281.468 164.762C281.468 153.434 272.2 144.167 260.873 144.167Z" fill="#DAFFFB" transform="matrix(1 0 0 1.00145 2091 963)"/></g></g></g></g></svg>