<svg width="96" height="96" xmlns="http://www.w3.org/2000/svg" xmlns:xlink="http://www.w3.org/1999/xlink" xml:space="preserve" overflow="hidden"><g transform="translate(-655 -60)"><path d="M724.59 76.718 726.674 73.107 733.9 73.107C731.943 68.7488 726.824 66.8019 722.466 68.7585 720.791 69.5107 719.398 70.7766 718.49 72.373L687.313 72.373C684.918 68.2395 679.625 66.8302 675.492 69.2253 673.936 70.1269 672.7 71.4911 671.955 73.128L679.164 73.107 681.216 76.718 679.132 80.328 671.9 80.328C673.856 84.6863 678.975 86.6336 683.334 84.6773 685.009 83.9252 686.402 82.6593 687.31 81.063L718.49 81.063C720.886 85.1964 726.18 86.6047 730.313 84.2084 731.868 83.307 733.104 81.9438 733.848 80.308L726.622 80.308Z" fill="#DAFFFB"/><path d="M730.823 122.077C730.82 123.177 729.928 124.068 728.828 124.071L722.846 124.071C721.744 124.071 720.849 123.179 720.846 122.077L720.846 120.083C720.849 118.981 721.744 118.089 722.846 118.089L728.828 118.089C729.928 118.092 730.82 118.983 730.823 120.083L730.823 122.077ZM679.271 112.106 685.054 98.345C685.361 97.6217 686.068 97.15 686.854 97.145L718.757 97.145C719.543 97.15 720.25 97.6217 720.557 98.345L726.54 112.106ZM684.954 122.077C684.951 123.177 684.06 124.068 682.96 124.071L676.977 124.071C675.877 124.068 674.986 123.177 674.983 122.077L674.983 120.083C674.986 118.983 675.877 118.092 676.977 118.089L682.96 118.089C684.06 118.092 684.951 118.983 684.954 120.083L684.954 122.077ZM686.954 93.16C684.538 93.1352 682.357 94.6027 681.469 96.85L674.983 112.106C671.683 112.115 669.009 114.789 669 118.089L669 134.043C669.007 136.243 670.789 138.025 672.989 138.031L674.983 138.031 674.983 145.011C674.989 147.211 676.771 148.993 678.971 149L680.971 149C683.171 148.993 684.953 147.211 684.959 145.011L684.959 138.031 720.859 138.031 720.859 145.011C720.865 147.208 722.643 148.99 724.84 149L726.834 149C729.035 148.994 730.817 147.212 730.823 145.011L730.823 138.031 732.817 138.031C735.017 138.025 736.799 136.243 736.806 134.043L736.806 118.089C736.797 114.789 734.123 112.115 730.823 112.106L730.823 112.106 724.341 96.85C723.454 94.6028 721.273 93.1354 718.857 93.16Z" fill="#DAFFFB"/></g></svg>