<svg width="96" height="96" xmlns="http://www.w3.org/2000/svg" xmlns:xlink="http://www.w3.org/1999/xlink" xml:space="preserve" overflow="hidden"><g transform="translate(-592 -372)"><path d="M651.3 409.3C647.1 409.3 643.8 405.9 643.8 401.8 643.8 397.7 647.2 394.3 651.3 394.3 655.5 394.3 658.8 397.7 658.8 401.8 658.8 405.9 655.4 409.3 651.3 409.3ZM668.2 397.1C667.8 395.7 667.3 394.4 666.6 393.2L668.2 388.5 664.6 384.9 659.9 386.5C658.7 385.8 657.4 385.3 656 384.9L653.8 380.5 648.8 380.5 646.6 384.9C645.2 385.3 643.9 385.8 642.7 386.5L638 384.9 634.4 388.5 636 393.2C635.3 394.4 634.8 395.7 634.4 397.1L630 399.3 630 404.3 634.4 406.5C634.8 407.9 635.3 409.2 636 410.4L634.4 415.1 637.9 418.6 642.6 417C643.8 417.7 645.1 418.2 646.5 418.6L648.7 423 653.7 423 655.9 418.6C657.3 418.2 658.6 417.7 659.8 417L664.5 418.6 668.1 415.1 666.5 410.4C667.2 409.2 667.8 407.8 668.2 406.5L672.6 404.3 672.6 399.3 668.2 397.1Z" fill="#C00000"/><path d="M628.7 445.7C624.5 445.7 621.2 442.3 621.2 438.2 621.2 434 624.6 430.7 628.7 430.7 632.9 430.7 636.2 434.1 636.2 438.2 636.2 442.3 632.9 445.7 628.7 445.7L628.7 445.7ZM644 429.6 645.6 424.9 642 421.3 637.3 422.9C636.1 422.2 634.7 421.7 633.4 421.3L631.2 416.9 626.2 416.9 624 421.3C622.6 421.7 621.3 422.2 620.1 422.9L615.4 421.3 611.9 424.8 613.4 429.5C612.7 430.7 612.2 432.1 611.8 433.4L607.4 435.6 607.4 440.6 611.8 442.8C612.2 444.2 612.7 445.5 613.4 446.7L611.9 451.4 615.4 454.9 620.1 453.4C621.3 454.1 622.6 454.6 624 455L626.2 459.4 631.2 459.4 633.4 455C634.8 454.6 636.1 454.1 637.3 453.4L642 455 645.5 451.4 644 446.8C644.7 445.6 645.2 444.3 645.6 442.9L650 440.7 650 435.7 645.6 433.5C645.2 432.1 644.7 430.8 644 429.6Z" fill="#C00000"/></g></svg>