<svg width="96" height="96" xmlns="http://www.w3.org/2000/svg" xmlns:xlink="http://www.w3.org/1999/xlink" xml:space="preserve" overflow="hidden"><g transform="translate(-272 -148)"><path d="M336 178C336 186.837 328.837 194 320 194 311.163 194 304 186.837 304 178 304 169.163 311.163 162 320 162 328.837 162 336 169.163 336 178Z" fill="#FFFFFF"/><path d="M352 230 352 214C352 211.6 350.8 209.2 348.8 207.6 344.4 204 338.8 201.6 333.2 200 329.2 198.8 324.8 198 320 198 315.6 198 311.2 198.8 306.8 200 301.2 201.6 295.6 204.4 291.2 207.6 289.2 209.2 288 211.6 288 214L288 230 352 230Z" fill="#FFFFFF"/></g></svg>