<svg width="96" height="96" xmlns="http://www.w3.org/2000/svg" xmlns:xlink="http://www.w3.org/1999/xlink" xml:space="preserve" overflow="hidden"><g transform="translate(-417 -172)"><path d="M433.5 254.8C432.8 255.5 431.9 255.7 431 255.3 430.1 254.9 429.6 254.1 429.6 253.2 429.6 252.3 430.2 251.4 431 251.1 431.9 250.7 432.8 250.9 433.5 251.6 434.4 252.4 434.4 253.9 433.5 254.8ZM504.1 188.9 496 197 489.6 195.3 488 189 496.1 180.9C491.3 179.1 485.9 180.2 482.1 183.6 478.3 187.1 476.8 192.3 478.1 197.3L427.1 248.3C425.3 250 424.6 252.6 425.2 255 425.8 257.4 427.7 259.3 430.1 259.9 432.5 260.5 435 259.8 436.8 258L487.8 207C492.8 208.3 498 206.8 501.5 203 504.9 199.2 506 193.7 504.1 188.9Z" fill="#C00000"/><path d="M503.7 248.3 477.9 222.5 467.5 232.9 492.5 257.9 493.4 258.8 493.5 258.7C496.4 260.8 500.4 260.4 502.9 257.9 505.4 255.3 505.7 251.3 503.7 248.3L503.7 248.3Z" fill="#C00000"/><path d="M439.6 191.8 439.7 191.7 437.1 186.9 428.5 180 425 183.5 431.9 192.1 436.7 194.7 436.8 194.6 455.9 213.7 458.7 210.9Z" fill="#C00000"/></g></svg>